<?xml version="1.0" encoding="UTF-8" standalone="no"?>
<!DOCTYPE svg PUBLIC "-//W3C//DTD SVG 1.1//EN"
		"http://www.w3.org/Graphics/SVG/1.1/DTD/svg11.dtd">
<!-- Generated by graphviz version 2.44.0 (0)
 -->
<!-- Pages: 1 -->
<svg width="1029pt" height="739pt"
     viewBox="0.00 0.00 1029.18 739.42" xmlns="http://www.w3.org/2000/svg">
	<g id="graph0" class="graph" transform="scale(1 1) rotate(0) translate(4 735.42)">
		<polygon fill="white" stroke="transparent" points="-4,4 -4,-735.42 1025.18,-735.42 1025.18,4 -4,4"/>
		<!-- Query_158033020 -->
		<g id="node1" class="node">
			<title>Query_158033020</title>
			<ellipse fill="greenyellow" stroke="greenyellow" cx="262.92" cy="-445.05" rx="38.19" ry="18"/>
			<text text-anchor="middle" x="262.92" y="-441.35" font-family="Times-Roman" font-size="14.00">Query</text>
		</g>
		<!-- hero_849443759 -->
		<g id="node2" class="node">
			<title>hero_849443759</title>
			<ellipse fill="#eee9e9" stroke="#eee9e9" cx="135.29" cy="-624.18" rx="30.59" ry="18"/>
			<text text-anchor="middle" x="135.29" y="-620.48" font-family="Times-Roman" font-size="14.00">hero</text>
		</g>
		<!-- Query_158033020&#45;&#45;hero_849443759 -->
		<g id="edge1" class="edge">
			<title>Query_158033020&#45;&#45;hero_849443759</title>
			<path fill="none" stroke="black" d="M250.68,-462.23C226.16,-496.64 171.3,-573.65 147.12,-607.58"/>
		</g>
		<!-- planets_563031252 -->
		<g id="node3" class="node">
			<title>planets_563031252</title>
			<ellipse fill="#eee9e9" stroke="#eee9e9" cx="44.2" cy="-436.07" rx="44.39" ry="18"/>
			<text text-anchor="middle" x="44.2" y="-432.37" font-family="Times-Roman" font-size="14.00">planets</text>
		</g>
		<!-- Query_158033020&#45;&#45;planets_563031252 -->
		<g id="edge2" class="edge">
			<title>Query_158033020&#45;&#45;planets_563031252</title>
			<path fill="none" stroke="black" d="M224.57,-443.48C186.59,-441.92 128.48,-439.54 88.54,-437.9"/>
		</g>
		<!-- Character_963228187 -->
		<g id="node4" class="node">
			<title>Character_963228187</title>
			<ellipse fill="greenyellow" stroke="greenyellow" cx="327.93" cy="-232.23" rx="55.49" ry="18"/>
			<text text-anchor="middle" x="327.93" y="-228.53" font-family="Times-Roman" font-size="14.00">Character
			</text>
		</g>
		<!-- Query_158033020&#45;&#45;Character_963228187 -->
		<g id="edge11" class="edge">
			<title>Query_158033020&#45;&#45;Character_963228187</title>
			<path fill="none" stroke="black" d="M268.47,-426.91C280.75,-386.7 310.13,-290.5 322.4,-250.33"/>
		</g>
		<!-- Planet_2138320748 -->
		<g id="node12" class="node">
			<title>Planet_2138320748</title>
			<ellipse fill="greenyellow" stroke="greenyellow" cx="537.68" cy="-448.35" rx="38.19" ry="18"/>
			<text text-anchor="middle" x="537.68" y="-444.65" font-family="Times-Roman" font-size="14.00">Planet</text>
		</g>
		<!-- Query_158033020&#45;&#45;Planet_2138320748 -->
		<g id="edge12" class="edge">
			<title>Query_158033020&#45;&#45;Planet_2138320748</title>
			<path fill="none" stroke="black" d="M301.42,-445.52C353.7,-446.14 446.63,-447.26 499.01,-447.89"/>
		</g>
		<!-- Character_963228187&#45;&#45;Character_963228187 -->
		<g id="edge13" class="edge">
			<title>Character_963228187&#45;&#45;Character_963228187</title>
			<path fill="none" stroke="black"
			      d="M379.61,-238.87C392,-238.35 401.18,-236.14 401.18,-232.23 401.18,-228.33 392,-226.12 379.61,-225.6"/>
		</g>
		<!-- name_507838526 -->
		<g id="node5" class="node">
			<title>name_507838526</title>
			<ellipse fill="#eee9e9" stroke="#eee9e9" cx="115.75" cy="-168.05" rx="36.29" ry="18"/>
			<text text-anchor="middle" x="115.75" y="-164.35" font-family="Times-Roman" font-size="14.00">name</text>
		</g>
		<!-- Character_963228187&#45;&#45;name_507838526 -->
		<g id="edge3" class="edge">
			<title>Character_963228187&#45;&#45;name_507838526</title>
			<path fill="none" stroke="black" d="M287.02,-219.86C246.07,-207.47 183.98,-188.69 146.88,-177.47"/>
		</g>
		<!-- friends_535978454 -->
		<g id="node6" class="node">
			<title>friends_535978454</title>
			<ellipse fill="#eee9e9" stroke="#eee9e9" cx="425.65" cy="-44" rx="42.49" ry="18"/>
			<text text-anchor="middle" x="425.65" y="-40.3" font-family="Times-Roman" font-size="14.00">friends</text>
		</g>
		<!-- Character_963228187&#45;&#45;friends_535978454 -->
		<g id="edge4" class="edge">
			<title>Character_963228187&#45;&#45;friends_535978454</title>
			<path fill="none" stroke="black" d="M337.3,-214.19C356.03,-178.12 397.87,-97.52 416.46,-61.72"/>
		</g>
		<!-- homeWorld_1222655199 -->
		<g id="node7" class="node">
			<title>homeWorld_1222655199</title>
			<ellipse fill="#eee9e9" stroke="#eee9e9" cx="233.7" cy="-18" rx="61.99" ry="18"/>
			<text text-anchor="middle" x="233.7" y="-14.3" font-family="Times-Roman" font-size="14.00">homeWorld</text>
		</g>
		<!-- Character_963228187&#45;&#45;homeWorld_1222655199 -->
		<g id="edge5" class="edge">
			<title>Character_963228187&#45;&#45;homeWorld_1222655199</title>
			<path fill="none" stroke="black" d="M320.06,-214.34C302.32,-174.01 259.4,-76.42 241.62,-36"/>
		</g>
		<!-- Character_963228187&#45;&#45;Planet_2138320748 -->
		<g id="edge14" class="edge">
			<title>Character_963228187&#45;&#45;Planet_2138320748</title>
			<path fill="none" stroke="black" d="M344.74,-249.56C384.31,-290.32 482.89,-391.9 521.66,-431.84"/>
		</g>
		<!-- PlanetType_786543134 -->
		<g id="node8" class="node">
			<title>PlanetType_786543134</title>
			<ellipse fill="#ab82ff" stroke="#ab82ff" cx="727.77" cy="-451.33" rx="59.29" ry="18"/>
			<text text-anchor="middle" x="727.77" y="-447.63" font-family="Times-Roman" font-size="14.00">PlanetType
			</text>
		</g>
		<!-- Mutation_693856677 -->
		<g id="node9" class="node">
			<title>Mutation_693856677</title>
			<ellipse fill="greenyellow" stroke="greenyellow" cx="759.09" cy="-261.04" rx="50.09" ry="18"/>
			<text text-anchor="middle" x="759.09" y="-257.34" font-family="Times-Roman" font-size="14.00">Mutation
			</text>
		</g>
		<!-- updateCharacter_2104829072 -->
		<g id="node10" class="node">
			<title>updateCharacter_2104829072</title>
			<ellipse fill="#eee9e9" stroke="#eee9e9" cx="853.14" cy="-78.28" rx="87.18" ry="18"/>
			<text text-anchor="middle" x="853.14" y="-74.58" font-family="Times-Roman" font-size="14.00">
				updateCharacter
			</text>
		</g>
		<!-- Mutation_693856677&#45;&#45;updateCharacter_2104829072 -->
		<g id="edge6" class="edge">
			<title>Mutation_693856677&#45;&#45;updateCharacter_2104829072</title>
			<path fill="none" stroke="black" d="M768.28,-243.19C786.26,-208.25 825.91,-131.2 843.92,-96.21"/>
		</g>
		<!-- updatePlanet_689879595 -->
		<g id="node11" class="node">
			<title>updatePlanet_689879595</title>
			<ellipse fill="#eee9e9" stroke="#eee9e9" cx="950.99" cy="-289.56" rx="70.39" ry="18"/>
			<text text-anchor="middle" x="950.99" y="-285.86" font-family="Times-Roman" font-size="14.00">updatePlanet
			</text>
		</g>
		<!-- Mutation_693856677&#45;&#45;updatePlanet_689879595 -->
		<g id="edge7" class="edge">
			<title>Mutation_693856677&#45;&#45;updatePlanet_689879595</title>
			<path fill="none" stroke="black" d="M805.54,-267.95C830.94,-271.72 862.72,-276.44 890.08,-280.51"/>
		</g>
		<!-- Mutation_693856677&#45;&#45;Planet_2138320748 -->
		<g id="edge15" class="edge">
			<title>Mutation_693856677&#45;&#45;Planet_2138320748</title>
			<path fill="none" stroke="black" d="M739.44,-277.67C697.11,-313.48 597.78,-397.51 556.34,-432.56"/>
		</g>
		<!-- Planet_2138320748&#45;&#45;PlanetType_786543134 -->
		<g id="edge16" class="edge">
			<title>Planet_2138320748&#45;&#45;PlanetType_786543134</title>
			<path fill="none" stroke="black" d="M576.15,-448.96C602.62,-449.37 638.3,-449.93 668.39,-450.4"/>
		</g>
		<!-- name_1718997747 -->
		<g id="node13" class="node">
			<title>name_1718997747</title>
			<ellipse fill="#eee9e9" stroke="#eee9e9" cx="565.3" cy="-713.42" rx="36.29" ry="18"/>
			<text text-anchor="middle" x="565.3" y="-709.72" font-family="Times-Roman" font-size="14.00">name</text>
		</g>
		<!-- Planet_2138320748&#45;&#45;name_1718997747 -->
		<g id="edge8" class="edge">
			<title>Planet_2138320748&#45;&#45;name_1718997747</title>
			<path fill="none" stroke="black" d="M539.58,-466.57C544.64,-515.11 558.4,-647.14 563.43,-695.43"/>
		</g>
		<!-- climate_762104039 -->
		<g id="node14" class="node">
			<title>climate_762104039</title>
			<ellipse fill="#eee9e9" stroke="#eee9e9" cx="470.66" cy="-598.71" rx="43.59" ry="18"/>
			<text text-anchor="middle" x="470.66" y="-595.01" font-family="Times-Roman" font-size="14.00">climate</text>
		</g>
		<!-- Planet_2138320748&#45;&#45;climate_762104039 -->
		<g id="edge9" class="edge">
			<title>Planet_2138320748&#45;&#45;climate_762104039</title>
			<path fill="none" stroke="black" d="M529.73,-466.19C516.83,-495.13 491.49,-551.97 478.6,-580.89"/>
		</g>
		<!-- type_1235389826 -->
		<g id="node15" class="node">
			<title>type_1235389826</title>
			<ellipse fill="#eee9e9" stroke="#eee9e9" cx="719.88" cy="-618.79" rx="30.59" ry="18"/>
			<text text-anchor="middle" x="719.88" y="-615.09" font-family="Times-Roman" font-size="14.00">type</text>
		</g>
		<!-- Planet_2138320748&#45;&#45;type_1235389826 -->
		<g id="edge10" class="edge">
			<title>Planet_2138320748&#45;&#45;type_1235389826</title>
			<path fill="none" stroke="black" d="M555.15,-464.7C590.33,-497.61 669.27,-571.45 703.52,-603.48"/>
		</g>
	</g>
</svg>
