<?xml version="1.0" encoding="UTF-8" standalone="no"?>
<!DOCTYPE svg PUBLIC "-//W3C//DTD SVG 1.1//EN"
		"http://www.w3.org/Graphics/SVG/1.1/DTD/svg11.dtd">
<!-- Generated by graphviz version 2.44.0 (0)
 -->
<!-- Pages: 1 -->
<svg width="1003pt" height="965pt"
     viewBox="0.00 0.00 1003.30 965.37" xmlns="http://www.w3.org/2000/svg">
	<g id="graph0" class="graph" transform="scale(1 1) rotate(0) translate(4 961.37)">
		<polygon fill="white" stroke="transparent" points="-4,4 -4,-961.37 999.3,-961.37 999.3,4 -4,4"/>
		<!-- Query_158033020 -->
		<g id="node1" class="node">
			<title>Query_158033020</title>
			<ellipse fill="greenyellow" stroke="greenyellow" cx="581.79" cy="-662.55" rx="38.19" ry="18"/>
			<text text-anchor="middle" x="581.79" y="-658.85" font-family="Times-Roman" font-size="14.00">Query</text>
		</g>
		<!-- hero_849443759 -->
		<g id="node2" class="node">
			<title>hero_849443759</title>
			<ellipse fill="#eee9e9" stroke="#eee9e9" cx="691.28" cy="-820.6" rx="30.59" ry="18"/>
			<text text-anchor="middle" x="691.28" y="-816.9" font-family="Times-Roman" font-size="14.00">hero</text>
		</g>
		<!-- Query_158033020&#45;&#45;hero_849443759 -->
		<g id="edge2" class="edge">
			<title>Query_158033020&#45;&#45;hero_849443759</title>
			<path fill="none" stroke="black" d="M593.71,-679.77C614.89,-710.33 658.78,-773.68 679.7,-803.88"/>
		</g>
		<!-- planets_563031252 -->
		<g id="node4" class="node">
			<title>planets_563031252</title>
			<ellipse fill="#eee9e9" stroke="#eee9e9" cx="725.74" cy="-675.64" rx="44.39" ry="18"/>
			<text text-anchor="middle" x="725.74" y="-671.94" font-family="Times-Roman" font-size="14.00">planets</text>
		</g>
		<!-- Query_158033020&#45;&#45;planets_563031252 -->
		<g id="edge3" class="edge">
			<title>Query_158033020&#45;&#45;planets_563031252</title>
			<path fill="none" stroke="black" d="M619.61,-665.99C638.93,-667.75 662.54,-669.89 682.57,-671.72"/>
		</g>
		<!-- Character_963228187 -->
		<g id="node5" class="node">
			<title>Character_963228187</title>
			<ellipse fill="greenyellow" stroke="greenyellow" cx="441.3" cy="-701.15" rx="55.49" ry="18"/>
			<text text-anchor="middle" x="441.3" y="-697.45" font-family="Times-Roman" font-size="14.00">Character
			</text>
		</g>
		<!-- Query_158033020&#45;&#45;Character_963228187 -->
		<g id="edge20" class="edge">
			<title>Query_158033020&#45;&#45;Character_963228187</title>
			<path fill="none" stroke="black" d="M548.49,-671.7C529.1,-677.03 504.45,-683.8 483.69,-689.5"/>
		</g>
		<!-- Planet_2138320748 -->
		<g id="node21" class="node">
			<title>Planet_2138320748</title>
			<ellipse fill="greenyellow" stroke="greenyellow" cx="442.89" cy="-493.54" rx="38.19" ry="18"/>
			<text text-anchor="middle" x="442.89" y="-489.84" font-family="Times-Roman" font-size="14.00">Planet</text>
		</g>
		<!-- Query_158033020&#45;&#45;Planet_2138320748 -->
		<g id="edge21" class="edge">
			<title>Query_158033020&#45;&#45;Planet_2138320748</title>
			<path fill="none" stroke="black" d="M567.96,-645.73C541.41,-613.42 483.54,-543 456.87,-510.54"/>
		</g>
		<!-- id_271460069 -->
		<g id="node3" class="node">
			<title>id_271460069</title>
			<ellipse fill="none" stroke="black" cx="775.55" cy="-939.37" rx="27" ry="18"/>
			<text text-anchor="middle" x="775.55" y="-935.67" font-family="Times-Roman" font-size="14.00">id</text>
		</g>
		<!-- hero_849443759&#45;&#45;id_271460069 -->
		<g id="edge1" class="edge">
			<title>hero_849443759&#45;&#45;id_271460069</title>
			<path fill="none" stroke="black" d="M703.18,-837.37C719.33,-860.13 748.01,-900.55 763.99,-923.07"/>
		</g>
		<!-- Character_963228187&#45;&#45;Character_963228187 -->
		<g id="edge22" class="edge">
			<title>Character_963228187&#45;&#45;Character_963228187</title>
			<path fill="none" stroke="black"
			      d="M492.97,-707.78C505.36,-707.26 514.54,-705.05 514.54,-701.15 514.54,-697.24 505.36,-695.03 492.97,-694.51"/>
		</g>
		<!-- name_507838526 -->
		<g id="node6" class="node">
			<title>name_507838526</title>
			<ellipse fill="#eee9e9" stroke="#eee9e9" cx="450.64" cy="-790.39" rx="36.29" ry="18"/>
			<text text-anchor="middle" x="450.64" y="-786.69" font-family="Times-Roman" font-size="14.00">name</text>
		</g>
		<!-- Character_963228187&#45;&#45;name_507838526 -->
		<g id="edge4" class="edge">
			<title>Character_963228187&#45;&#45;name_507838526</title>
			<path fill="none" stroke="black" d="M443.19,-719.21C444.81,-734.69 447.13,-756.88 448.76,-772.36"/>
		</g>
		<!-- friends_535978454 -->
		<g id="node7" class="node">
			<title>friends_535978454</title>
			<ellipse fill="#eee9e9" stroke="#eee9e9" cx="472.65" cy="-875.44" rx="42.49" ry="18"/>
			<text text-anchor="middle" x="472.65" y="-871.74" font-family="Times-Roman" font-size="14.00">friends</text>
		</g>
		<!-- Character_963228187&#45;&#45;friends_535978454 -->
		<g id="edge5" class="edge">
			<title>Character_963228187&#45;&#45;friends_535978454</title>
			<path fill="none" stroke="black" d="M444.53,-719.14C450.54,-752.54 463.35,-823.76 469.39,-857.28"/>
		</g>
		<!-- homeWorld_1222655199 -->
		<g id="node8" class="node">
			<title>homeWorld_1222655199</title>
			<ellipse fill="#eee9e9" stroke="#eee9e9" cx="303.65" cy="-794" rx="61.99" ry="18"/>
			<text text-anchor="middle" x="303.65" y="-790.3" font-family="Times-Roman" font-size="14.00">homeWorld
			</text>
		</g>
		<!-- Character_963228187&#45;&#45;homeWorld_1222655199 -->
		<g id="edge6" class="edge">
			<title>Character_963228187&#45;&#45;homeWorld_1222655199</title>
			<path fill="none" stroke="black" d="M417.01,-717.53C392,-734.4 353.25,-760.54 328.16,-777.46"/>
		</g>
		<!-- Character_963228187&#45;&#45;Planet_2138320748 -->
		<g id="edge23" class="edge">
			<title>Character_963228187&#45;&#45;Planet_2138320748</title>
			<path fill="none" stroke="black" d="M441.44,-683.08C441.74,-643.82 442.45,-551.06 442.75,-511.7"/>
		</g>
		<!-- PlanetType_786543134 -->
		<g id="node9" class="node">
			<title>PlanetType_786543134</title>
			<ellipse fill="#ab82ff" stroke="#ab82ff" cx="224.97" cy="-340.02" rx="59.29" ry="18"/>
			<text text-anchor="middle" x="224.97" y="-336.32" font-family="Times-Roman" font-size="14.00">PlanetType
			</text>
		</g>
		<!-- GAS_1260805330 -->
		<g id="node10" class="node">
			<title>GAS_1260805330</title>
			<ellipse fill="none" stroke="black" cx="65.64" cy="-300.43" rx="65.79" ry="18"/>
			<text text-anchor="middle" x="65.64" y="-296.73" font-family="Times-Roman" font-size="14.00">GAS_GIANT,
			</text>
		</g>
		<!-- PlanetType_786543134&#45;&#45;GAS_1260805330 -->
		<g id="edge7" class="edge">
			<title>PlanetType_786543134&#45;&#45;GAS_1260805330</title>
			<path fill="none" stroke="black" d="M178.88,-328.57C158.66,-323.54 134.91,-317.64 114.4,-312.54"/>
		</g>
		<!-- NEPTUNIAN_1318265931 -->
		<g id="node11" class="node">
			<title>NEPTUNIAN_1318265931</title>
			<ellipse fill="none" stroke="black" cx="96.43" cy="-422.93" rx="66.89" ry="18"/>
			<text text-anchor="middle" x="96.43" y="-419.23" font-family="Times-Roman" font-size="14.00">NEPTUNIAN,
			</text>
		</g>
		<!-- PlanetType_786543134&#45;&#45;NEPTUNIAN_1318265931 -->
		<g id="edge8" class="edge">
			<title>PlanetType_786543134&#45;&#45;NEPTUNIAN_1318265931</title>
			<path fill="none" stroke="black" d="M199.57,-356.4C177.18,-370.84 144.72,-391.79 122.21,-406.3"/>
		</g>
		<!-- SUPER_943577 -->
		<g id="node12" class="node">
			<title>SUPER_943577</title>
			<ellipse fill="none" stroke="black" cx="267.6" cy="-198.82" rx="78.79" ry="18"/>
			<text text-anchor="middle" x="267.6" y="-195.12" font-family="Times-Roman" font-size="14.00">SUPER_EARTH,
			</text>
		</g>
		<!-- PlanetType_786543134&#45;&#45;SUPER_943577 -->
		<g id="edge9" class="edge">
			<title>PlanetType_786543134&#45;&#45;SUPER_943577</title>
			<path fill="none" stroke="black" d="M230.45,-321.85C238.64,-294.74 253.96,-243.99 262.14,-216.92"/>
		</g>
		<!-- TERRESTRIAL_347819478 -->
		<g id="node13" class="node">
			<title>TERRESTRIAL_347819478</title>
			<ellipse fill="none" stroke="black" cx="139.15" cy="-201.23" rx="72.29" ry="18"/>
			<text text-anchor="middle" x="139.15" y="-197.53" font-family="Times-Roman" font-size="14.00">TERRESTRIAL
			</text>
		</g>
		<!-- PlanetType_786543134&#45;&#45;TERRESTRIAL_347819478 -->
		<g id="edge10" class="edge">
			<title>PlanetType_786543134&#45;&#45;TERRESTRIAL_347819478</title>
			<path fill="none" stroke="black" d="M213.92,-322.16C197.44,-295.51 166.6,-245.63 150.15,-219.02"/>
		</g>
		<!-- Mutation_693856677 -->
		<g id="node14" class="node">
			<title>Mutation_693856677</title>
			<ellipse fill="greenyellow" stroke="greenyellow" cx="645.16" cy="-346.55" rx="50.09" ry="18"/>
			<text text-anchor="middle" x="645.16" y="-342.85" font-family="Times-Roman" font-size="14.00">Mutation
			</text>
		</g>
		<!-- updateCharacter_2104829072 -->
		<g id="node15" class="node">
			<title>updateCharacter_2104829072</title>
			<ellipse fill="#eee9e9" stroke="#eee9e9" cx="828.51" cy="-370.92" rx="87.18" ry="18"/>
			<text text-anchor="middle" x="828.51" y="-367.22" font-family="Times-Roman" font-size="14.00">
				updateCharacter
			</text>
		</g>
		<!-- Mutation_693856677&#45;&#45;updateCharacter_2104829072 -->
		<g id="edge15" class="edge">
			<title>Mutation_693856677&#45;&#45;updateCharacter_2104829072</title>
			<path fill="none" stroke="black" d="M692.38,-352.83C711.48,-355.36 733.97,-358.35 755.12,-361.17"/>
		</g>
		<!-- updatePlanet_689879595 -->
		<g id="node18" class="node">
			<title>updatePlanet_689879595</title>
			<ellipse fill="#eee9e9" stroke="#eee9e9" cx="719.42" cy="-161.16" rx="70.39" ry="18"/>
			<text text-anchor="middle" x="719.42" y="-157.46" font-family="Times-Roman" font-size="14.00">updatePlanet
			</text>
		</g>
		<!-- Mutation_693856677&#45;&#45;updatePlanet_689879595 -->
		<g id="edge16" class="edge">
			<title>Mutation_693856677&#45;&#45;updatePlanet_689879595</title>
			<path fill="none" stroke="black" d="M652.42,-328.44C666.65,-292.9 698.07,-214.45 712.24,-179.07"/>
		</g>
		<!-- Mutation_693856677&#45;&#45;Planet_2138320748 -->
		<g id="edge24" class="edge">
			<title>Mutation_693856677&#45;&#45;Planet_2138320748</title>
			<path fill="none" stroke="black" d="M622.74,-362.84C583.35,-391.47 502.25,-450.4 463.89,-478.28"/>
		</g>
		<!-- id_191233178 -->
		<g id="node16" class="node">
			<title>id_191233178</title>
			<ellipse fill="none" stroke="black" cx="940.8" cy="-309.66" rx="27" ry="18"/>
			<text text-anchor="middle" x="940.8" y="-305.96" font-family="Times-Roman" font-size="14.00">id</text>
		</g>
		<!-- updateCharacter_2104829072&#45;&#45;id_191233178 -->
		<g id="edge11" class="edge">
			<title>updateCharacter_2104829072&#45;&#45;id_191233178</title>
			<path fill="none" stroke="black" d="M859.49,-354.02C878.71,-343.54 902.88,-330.35 919.85,-321.09"/>
		</g>
		<!-- friends_851988572 -->
		<g id="node17" class="node">
			<title>friends_851988572</title>
			<ellipse fill="none" stroke="black" cx="953.06" cy="-448.14" rx="42.49" ry="18"/>
			<text text-anchor="middle" x="953.06" y="-444.44" font-family="Times-Roman" font-size="14.00">friends</text>
		</g>
		<!-- updateCharacter_2104829072&#45;&#45;friends_851988572 -->
		<g id="edge12" class="edge">
			<title>updateCharacter_2104829072&#45;&#45;friends_851988572</title>
			<path fill="none" stroke="black" d="M856.15,-388.06C877.94,-401.57 908.02,-420.22 928.86,-433.14"/>
		</g>
		<!-- name_781373765 -->
		<g id="node19" class="node">
			<title>name_781373765</title>
			<ellipse fill="none" stroke="black" cx="839.28" cy="-77.74" rx="36.29" ry="18"/>
			<text text-anchor="middle" x="839.28" y="-74.04" font-family="Times-Roman" font-size="14.00">name</text>
		</g>
		<!-- updatePlanet_689879595&#45;&#45;name_781373765 -->
		<g id="edge13" class="edge">
			<title>updatePlanet_689879595&#45;&#45;name_781373765</title>
			<path fill="none" stroke="black" d="M743.96,-144.08C765.74,-128.92 797.24,-107 817.97,-92.57"/>
		</g>
		<!-- climate_2047306155 -->
		<g id="node20" class="node">
			<title>climate_2047306155</title>
			<ellipse fill="none" stroke="black" cx="710.19" cy="-18" rx="43.59" ry="18"/>
			<text text-anchor="middle" x="710.19" y="-14.3" font-family="Times-Roman" font-size="14.00">climate</text>
		</g>
		<!-- updatePlanet_689879595&#45;&#45;climate_2047306155 -->
		<g id="edge14" class="edge">
			<title>updatePlanet_689879595&#45;&#45;climate_2047306155</title>
			<path fill="none" stroke="black" d="M718.25,-143.03C716.48,-115.64 713.15,-64 711.38,-36.44"/>
		</g>
		<!-- Planet_2138320748&#45;&#45;PlanetType_786543134 -->
		<g id="edge25" class="edge">
			<title>Planet_2138320748&#45;&#45;PlanetType_786543134</title>
			<path fill="none" stroke="black" d="M421.6,-478.54C380.69,-449.72 291.37,-386.8 248.65,-356.7"/>
		</g>
		<!-- name_1718997747 -->
		<g id="node22" class="node">
			<title>name_1718997747</title>
			<ellipse fill="#eee9e9" stroke="#eee9e9" cx="347.64" cy="-587.77" rx="36.29" ry="18"/>
			<text text-anchor="middle" x="347.64" y="-584.07" font-family="Times-Roman" font-size="14.00">name</text>
		</g>
		<!-- Planet_2138320748&#45;&#45;name_1718997747 -->
		<g id="edge17" class="edge">
			<title>Planet_2138320748&#45;&#45;name_1718997747</title>
			<path fill="none" stroke="black" d="M426.3,-509.95C408.82,-527.25 381.45,-554.32 364.04,-571.55"/>
		</g>
		<!-- climate_762104039 -->
		<g id="node23" class="node">
			<title>climate_762104039</title>
			<ellipse fill="#eee9e9" stroke="#eee9e9" cx="413.97" cy="-380.01" rx="43.59" ry="18"/>
			<text text-anchor="middle" x="413.97" y="-376.31" font-family="Times-Roman" font-size="14.00">climate</text>
		</g>
		<!-- Planet_2138320748&#45;&#45;climate_762104039 -->
		<g id="edge18" class="edge">
			<title>Planet_2138320748&#45;&#45;climate_762104039</title>
			<path fill="none" stroke="black" d="M438.31,-475.55C432.89,-454.29 423.94,-419.14 418.53,-397.92"/>
		</g>
		<!-- type_1235389826 -->
		<g id="node24" class="node">
			<title>type_1235389826</title>
			<ellipse fill="#eee9e9" stroke="#eee9e9" cx="306.85" cy="-483.09" rx="30.59" ry="18"/>
			<text text-anchor="middle" x="306.85" y="-479.39" font-family="Times-Roman" font-size="14.00">type</text>
		</g>
		<!-- Planet_2138320748&#45;&#45;type_1235389826 -->
		<g id="edge19" class="edge">
			<title>Planet_2138320748&#45;&#45;type_1235389826</title>
			<path fill="none" stroke="black" d="M405,-490.63C383.61,-488.99 357.25,-486.96 337.23,-485.42"/>
		</g>
	</g>
</svg>
